<svg xmlns="http://www.w3.org/2000/svg" version="1.1" xmlns:xlink="http://www.w3.org/1999/xlink" xmlns:svgjs="http://svgjs.dev/svgjs" width="1000" height="1119" viewBox="0 0 1000 1119"><g transform="matrix(1,0,0,1,0.40231755220190735,-1.5832659574465424)"><svg viewBox="0 0 126 141" data-background-color="#ffffff" preserveAspectRatio="xMidYMid meet" height="1119" width="1000" xmlns="http://www.w3.org/2000/svg" xmlns:xlink="http://www.w3.org/1999/xlink"><g id="tight-bounds" transform="matrix(1,0,0,1,-0.05069201157743919,0.19949999999997203)"><svg viewBox="0 0 126.10138402315485 140.60052000000002" height="140.60052000000002" width="126.10138402315485"><g><svg viewBox="0 0 126.10138402315485 140.60052000000002" height="140.60052000000002" width="126.10138402315485"><g><svg viewBox="0 0 126.10138402315485 140.60052000000002" height="140.60052000000002" width="126.10138402315485"><g><path d="M0 140.601v-140.601h126.101v140.601z" fill="#4169e1" stroke="transparent" stroke-width="0" rx="0%" data-fill-palette-color="tertiary"></path><path d="M3.283 137.317v-134.034h119.535v134.034z" fill="#ffffff" stroke="transparent" stroke-width="0" rx="0%" data-fill-palette-color="quaternary"></path><path d="M9.85 130.751v-120.901h106.402v120.901z" fill="#4169e1" stroke="transparent" stroke-width="0" data-fill-palette-color="tertiary"></path></g><g transform="matrix(1,0,0,1,19.69974,19.69974)" id="textblocktransform"><svg viewBox="0 0 86.70190402315485 101.20104000000002" height="101.20104000000002" width="86.70190402315485" id="textblock"><g><svg viewBox="0 0 86.70190402315485 101.20104000000002" height="101.20104000000002" width="86.70190402315485"><g transform="matrix(1,0,0,1,0,0)"><svg width="86.70190402315485" viewBox="-0.25 -34.55 29.6 34.55" height="101.20104000000002" data-palette-color="#ffffff"><path d="M29.35 0L22.35 0 20.2-8 8.75-8 6.6 0-0.25 0 10.5-34.55 18.65-34.55 29.35 0ZM14.45-29.5L10.05-13 18.85-13 14.45-29.5Z" opacity="1" transform="matrix(1,0,0,1,0,0)" fill="#ffffff" class="wordmark-text-0" data-fill-palette-color="quaternary" id="text-0"></path></svg></g></svg></g></svg></g></svg></g><g></g></svg></g><defs></defs></svg><rect width="126.10138402315485" height="140.60052000000002" fill="none" stroke="none" visibility="hidden"></rect></g></svg></g></svg>